nColumns=19
nRows=62
DataType=double
version=3
OpenSimVersion=4.1
endheader
time	ground_force_1_vx	ground_force_1_vy	ground_force_1_vz	ground_force_1_px	ground_force_1_py	ground_force_1_pz	ground_force_1_mx	ground_force_1_my	ground_force_1_mz	ground_force_2_vx	ground_force_2_vy	ground_force_2_vz	ground_force_2_px	ground_force_2_py	ground_force_2_pz	ground_force_2_mx	ground_force_2_my	ground_force_2_mz
1.9	0	0	0	0.000869605	0	-0.000564073	0	0	0	-155.79	1004.17	40.5201	1.04996	0	-0.363991	0	-3.00463	0
1.91	0	0	0	0.000869597	0	-0.000564078	0	0	0	-155.777	1299	19.1227	1.02436	0	-0.36021	0	-0.934265	0
1.92	0	0	0	0.000869589	0	-0.000564082	0	0	0	-178.678	1432.87	-9.99123	0.996109	0	-0.359217	-0	1.59805	-0
1.93	0	0	0	0.000869582	0	-0.000564087	0	0	0	-186.242	1508.22	-22.8427	0.961733	0	-0.357446	-0	3.3902	-0
1.94	0	0	0	0.000869574	0	-0.000564091	0	0	0	-160.218	1591.96	-17.9226	0.921953	0	-0.356639	-0	3.73513	-0
1.95	0	0	0	0.000869567	0	-0.000564096	0	0	0	-110.343	1664.71	-7.2788	0.881239	0	-0.357279	-0	2.77445	-0
1.96	0	0	0	0.000869559	0	-0.0005641	0	0	0	-51.294	1696.7	0.421747	0.841968	0	-0.357328	-0	1.30815	-0
1.97	0	0	0	0.000869552	0	-0.000564105	0	0	0	12.7084	1673.25	-0.168863	0.802728	0	-0.356444	-0	0.293823	-0
1.98	0	0	0	0.000869545	0	-0.000564109	0	0	0	82.2244	1588.7	-10.3755	0.761309	0	-0.355115	-0	0.350546	-0
1.99	0	0	0	0.000869538	0	-0.000564113	0	0	0	157.195	1443.41	-25.259	0.715808	0	-0.353275	-0	1.50652	-0
2	0	0	0	0.000869531	0	-0.000564117	0	0	0	221.889	1244.41	-38.4738	0.666986	0	-0.351229	-0	3.27045	-0
2.01	0	0	0	0.000869524	0	-0.000564121	0	0	0	254.095	1007.13	-46.543	0.620677	0	-0.349381	-0	4.92371	-0
2.02	0	0	0	0.000869517	0	-0.000564125	0	0	0	245.365	750.004	-48.1898	0.581906	0	-0.347906	-0	5.85005	-0
2.03	0	0	0	0.00086951	0	-0.000564129	0	0	0	201.819	498.43	-43.7367	0.55092	0	-0.346762	-0	5.75793	-0
2.04	0	0	0	0.000869504	0	-0.000564133	0	0	0	138.439	286.363	-35.2977	0.524735	0	-0.346111	-0	4.73243	-0
2.05	0	0	0	0.000869497	0	-0.000564137	0	0	0	75.9159	138.161	-24.927	0.493088	0	-0.347095	-0	3.13556	-0
2.06	0	0	0	0.000869491	0	-0.000564141	0	0	0	31.6714	55.2619	-13.8912	0.456103	0	-0.344208	-0	1.43051	-0
2.07	0	0	0	0.000869485	0	-0.000564145	0	0	0	8.35702	19.8707	-4.86844	0.53646	0	-0.303623	-0	0.005742	-0
2.08	0	0	0	0.000869479	0	-0.000564149	0	0	0	0	0	0	0.000869377	0	-0.000564254	0	0	0
2.09	0	0	0	0.000869472	0	-0.000564152	0	0	0	0	0	0	0.00086937	0	-0.000564258	0	0	0
2.1	0	0	0	0.000869467	0	-0.000564156	0	0	0	0	0	0	0.000869364	0	-0.000564262	0	0	0
2.11	0	0	0	0.000869461	0	-0.000564159	0	0	0	0	0	0	0.000869357	0	-0.000564266	0	0	0
2.12	0	0	0	0.000869455	0	-0.000564163	0	0	0	0	0	0	0.000869351	0	-0.00056427	0	0	0
2.13	0	0	0	0.000869449	0	-0.000564166	0	0	0	0	0	0	0.000869345	0	-0.000564274	0	0	0
2.14	0	0	0	0.000869444	0	-0.000564169	0	0	0	0	0	0	0.000869339	0	-0.000564278	0	0	0
2.15	0	0	0	0.000869438	0	-0.000564173	0	0	0	0	0	0	0.000869334	0	-0.000564281	0	0	0
2.16	-4.8925	13.0618	-5.22501	1.20066	0	-0.278888	-0	3.2628	-0	0	0	0	0.000869328	0	-0.000564285	0	0	0
2.17	-18.9003	53.9982	-13.4262	1.10488	0	-0.32069	-0	5.15101	-0	0	0	0	0.000869322	0	-0.000564288	0	0	0
2.18	-59.6473	194.1	-23.4064	1.10606	0	-0.328514	-0	6.09693	-0	0	0	0	0.000869317	0	-0.000564292	0	0	0
2.19	-120.839	498.002	-26.9991	1.10333	0	-0.334164	-0	5.41692	-0	0	0	0	0.000869312	0	-0.000564295	0	0	0
2.2	-158.19	903.669	-12.5415	1.08771	0	-0.338579	-0	3.02009	-0	0	0	0	0.000869306	0	-0.000564298	0	0	0
2.21	-174.066	1226.86	17.1385	1.06384	0	-0.341497	0	-0.358972	0	0	0	0	0.000869301	0	-0.000564301	0	0	0
2.22	-204.505	1376.97	40.6169	1.03558	0	-0.344179	0	-3.43558	0	0	0	0	0.000869297	0	-0.000564304	0	0	0
2.23	-226.272	1450.75	45.7353	1.00209	0	-0.345885	0	-5.03852	0	0	0	0	0.000869292	0	-0.000564307	0	0	0
2.24	-213.789	1549.55	39.629	0.965274	0	-0.344255	0	-4.67592	0	0	0	0	0.000869287	0	-0.00056431	0	0	0
2.25	-169.711	1657.96	29.3582	0.928504	0	-0.341948	0	-2.66594	0	0	0	0	0.000869282	0	-0.000564313	0	0	0
2.26	-110.504	1726.84	19.4322	0.892897	0	-0.340446	-0	0.113324	-0	0	0	0	0.000869278	0	-0.000564316	0	0	0
2.27	-51.6067	1739.3	14.648	0.858624	0	-0.338387	-0	2.64495	-0	0	0	0	0.000869274	0	-0.000564319	0	0	0
2.28	4.44681	1693.75	14.0374	0.824299	0	-0.336667	-0	4.16244	-0	0	0	0	0.00086927	0	-0.000564321	0	0	0
2.29	57.3885	1593.98	16.392	0.789427	0	-0.336248	-0	4.3656	-0	0	0	0	0.000869266	0	-0.000564324	0	0	0
2.3	103.556	1447.24	24.3063	0.755622	0	-0.335931	-0	3.45075	-0	0	0	0	0.000869262	0	-0.000564326	0	0	0
2.31	141.976	1251.18	35.5165	0.72203	0	-0.33555	-0	1.98922	-0	0	0	0	0.000869258	0	-0.000564328	0	0	0
2.32	170.375	1002.73	43.2084	0.683876	0	-0.336478	-0	0.674921	-0	0	0	0	0.000869254	0	-0.000564331	0	0	0
2.33	179.586	725.739	44.9736	0.638172	0	-0.338147	-0	0.036015	-0	0	0	0	0.000869251	0	-0.000564333	0	0	0
2.34	157.573	465.762	41.6905	0.58953	0	-0.338331	-0	0.252992	-0	0	0	0	0.000869247	0	-0.000564335	0	0	0
2.35	110.908	259.193	32.985	0.54564	0	-0.336684	-0	1.13731	-0	0	0	0	0.000869244	0	-0.000564337	0	0	0
2.36	61.2933	120.541	20.5543	0.519382	0	-0.335651	-0	2.24096	-0	0	0	0	0.000869241	0	-0.000564339	0	0	0
2.37	23.8139	45.6094	10.2417	0.573941	0	-0.328627	-0	3.05844	-0	0	0	0	0.000869238	0	-0.000564341	0	0	0
2.38	5.2963	15.5002	5.38169	0.884254	0	-0.262545	-0	3.2485	-0	0	0	0	0.000869235	0	-0.000564343	0	0	0
2.39	0	0	0	0.000869344	0	-0.000564229	0	0	0	0	0	0	0.000869233	0	-0.000564344	0	0	0
2.4	0	0	0	0.000869341	0	-0.00056423	0	0	0	0	0	0	0.00086923	0	-0.000564346	0	0	0
2.41	0	0	0	0.000869339	0	-0.000564232	0	0	0	0	0	0	0.000869228	0	-0.000564347	0	0	0
2.42	0	0	0	0.000869337	0	-0.000564233	0	0	0	0	0	0	0.000869225	0	-0.000564349	0	0	0
2.43	0	0	0	0.000869335	0	-0.000564234	0	0	0	0	0	0	0.000869223	0	-0.00056435	0	0	0
2.44	0	0	0	0.000869333	0	-0.000564235	0	0	0	0	0	0	0.000869221	0	-0.000564351	0	0	0
2.45	0	0	0	0.000869331	0	-0.000564236	0	0	0	0	0	0	0.000869219	0	-0.000564353	0	0	0
2.46	0	0	0	0.00086933	0	-0.000564237	0	0	0	0	0	0	0.000869217	0	-0.000564354	0	0	0
2.47	0	0	0	0.000869328	0	-0.000564238	0	0	0	0	0	0	0.000869216	0	-0.000564355	0	0	0
2.48	0	0	0	0.000869327	0	-0.000564239	0	0	0	0	0	0	0.000869214	0	-0.000564356	0	0	0
2.49	0	0	0	0.000869325	0	-0.00056424	0	0	0	0	0	0	0.000869213	0	-0.000564356	0	0	0
2.5	0	0	0	0.000869324	0	-0.000564241	0	0	0	-14.1647	32.4475	2.97375	1.13316	0	-0.359685	-0	1.77278	-0
2.51	0	0	0	0.000869323	0	-0.000564241	0	0	0	-46.7376	118.412	7.85527	1.0752	0	-0.385771	-0	1.00229	-0
